<?xml version="1.0" standalone="no"?><!DOCTYPE svg PUBLIC "-//W3C//DTD SVG 1.1//EN" "http://www.w3.org/Graphics/SVG/1.1/DTD/svg11.dtd"><svg t="1622625478260" class="icon" viewBox="0 0 1024 1024" version="1.1" xmlns="http://www.w3.org/2000/svg" p-id="1426" xmlns:xlink="http://www.w3.org/1999/xlink" width="200" height="200"><defs><style type="text/css"></style></defs><path d="M454.4 387.1L319.3 555.8l-135-75.1c-13.7 53.6-20.8 101.2-20.8 133.9 0 190.5 154.4 344.9 344.8 345.1h0.2c190.5-0.2 344.8-154.6 344.8-345.1 0-62.9-26.3-180.6-75.2-291l-135 168.6-188.7-105.1zM330.9 784.5L312 811.3l-9.8-31.3-31.4-9.7 26.7-19-0.5-32.8 26.3 19.5 31-10.6-10.3 31.2 19.7 26.2-32.8-0.3z m232.5-40.3L547.3 796 516 751.7l-54.2 0.7 32.4-43.4-17.4-51.3 51.3 17.4 43.4-32.4-0.7 54.2 44.2 31.3-51.6 16z m131.3-153.8l16.2-34.7 17.7 33.9 38 4.7-26.8 27.3 7.3 37.6-34.2-17.1-33.5 18.5 5.7-37.8-28-26.1 37.6-6.3zM412.1 171.6l188.8 105 86-107.4C637.3 108 577.4 65.8 508.6 63.9h-0.1-0.1c-117.4 3.2-208.8 124-268 256l36.6 20.4 135.1-168.7z" p-id="1427" fill="#1296db"></path><path d="M444 334l188.8 105 125.7-157c-13.9-27.5-29.3-54-46.1-78.5l-101 126.3-188.8-105-135.2 168.6-63.2-35.2c-10.9 27.4-20.4 54.9-28.4 81.5l113.1 62.9L444 334z" p-id="1428" fill="#1296db"></path></svg>