<?xml version="1.0" standalone="no"?><!DOCTYPE svg PUBLIC "-//W3C//DTD SVG 1.1//EN" "http://www.w3.org/Graphics/SVG/1.1/DTD/svg11.dtd"><svg t="1622624382749" class="icon" viewBox="0 0 1024 1024" version="1.1" xmlns="http://www.w3.org/2000/svg" p-id="8200" xmlns:xlink="http://www.w3.org/1999/xlink" width="200" height="200"><defs><style type="text/css"></style></defs><path d="M959.586263 721.713131L746.925253 509.25899l193.939393-193.83596c13.34303-13.136162 20.997172-30.513131 21.721213-48.82101 0.72404-18.928485-6.102626-36.615758-19.238788-49.648485L807.641212 81.144242c-12.515556-12.412121-29.168485-19.135354-47.062626-19.135353-19.031919 0-37.85697 7.86101-51.613738 21.721212l-80.782222 80.678788c-0.103434 0.103434-0.206869 0.103434-0.206868 0.206869l-0.206869 0.206868-112.743434 112.64L302.467879 65.008485c-12.929293-12.825859-29.99596-19.859394-48.09697-19.859394-18.204444 0-35.271111 7.033535-48.09697 19.859394L63.844848 207.334141c-12.825859 12.929293-19.859394 29.99596-19.859393 47.993536 0 18.204444 7.033535 35.271111 19.859393 48.096969l212.661011 212.350708L115.355152 676.822626c-4.240808 4.137374-6.826667 9.826263-7.240405 15.825455L69.740606 925.99596c0 0.206869 0 0.310303-0.103434 0.517171v0.310303c0 0.310303-0.103434 0.517172-0.103435 0.827475v4.137374c0.103434 1.551515 0.310303 2.999596 0.724041 4.447677 0 0.103434 0.103434 0.310303 0.103434 0.413737 0.103434 0.517172 0.310303 1.034343 0.413737 1.448081 2.792727 8.585051 10.136566 14.791111 19.135354 16.239192h0.827475c1.137778 0.103434 2.172121 0.206869 3.309899 0.206868 1.034343 0 1.965253-0.103434 2.896161-0.206868 0.310303 0 0.620606-0.103434 0.930909-0.103435h0.103435l236.037172-38.684444c5.895758-1.034343 10.96404-4.033939 14.584242-8.274748l159.806061-159.702626 212.557575 212.454142c12.929293 12.825859 29.99596 19.859394 48.09697 19.859394 18.204444 0 35.271111-7.033535 48.09697-19.859394l142.429091-142.222223c12.825859-12.929293 19.859394-29.99596 19.859394-47.993535 0-18.204444-7.13697-35.271111-19.859394-48.09697zM743.615354 118.380606c4.654545-4.654545 10.860606-7.343838 16.859798-7.343838 4.861414 0 9.205657 1.758384 12.308686 4.861414l135.912728 135.809293c3.309899 3.206465 4.964848 7.757576 4.757979 13.032727-0.206869 5.792323-2.792727 11.481212-7.343838 16.032323l-63.612121 63.508687-162.495354-162.391919L743.615354 118.380606zM98.598788 268.774141c-3.516768-3.516768-5.48202-8.274747-5.48202-13.34303s1.965253-9.826263 5.48202-13.34303L241.027879 99.762424c3.516768-3.516768 8.274747-5.48202 13.34303-5.48202s9.826263 1.965253 13.34303 5.48202l212.454142 212.557576-169.011717 168.804848-212.557576-212.350707z m229.417374 264.998788l0.620606-0.620606 203.869091-203.558788c0.620606-0.620606 1.241212-1.344646 1.758383-1.965252l110.985051-110.985051 162.495353 162.39192-112.846868 112.743434-0.103435 0.103434-203.765656 203.558788-0.103434 0.103434L329.87798 856.488081 167.382626 694.199596l160.633536-160.426667zM149.178182 745.399596L278.67798 874.79596 123.733333 900.240808l25.444849-154.841212z m775.654141 37.546667L782.506667 925.271919c-3.516768 3.516768-8.274747 5.48202-13.343031 5.48202s-9.826263-1.965253-13.34303-5.48202L543.159596 712.817778l71.68-71.576566 97.331717-97.331717 212.66101 212.350707c3.516768 3.516768 5.48202 8.274747 5.48202 13.34303s-1.965253 9.826263-5.48202 13.343031z m0 0" p-id="8201" fill="#1296db"></path><path d="M414.280404 643.413333c6.412929 0 12.515556-2.585859 17.37697-7.240404l198.593939-198.490505c4.551111-4.551111 7.240404-10.860606 7.240404-17.376969s-2.585859-12.722424-7.240404-17.37697c-4.551111-4.551111-10.860606-7.240404-17.37697-7.240404-6.619798 0-12.722424 2.585859-17.376969 7.240404l-198.59394 198.490505c-4.551111 4.551111-7.240404 10.860606-7.240404 17.37697s2.585859 12.825859 7.13697 17.273535c4.654545 4.75798 10.860606 7.343838 17.480404 7.343838z m0 0" p-id="8202" fill="#1296db"></path></svg>